<svg width="1920" height="48" viewBox="0 0 1920 48" fill="none" xmlns="http://www.w3.org/2000/svg">
<g clip-path="url(#clip0_153_73)">
<path d="M975.069 43.0319L971.574 39.53L968.066 43.0319H975.069ZM726.66 34.9739H732.35L732.32 34.9496H726.69L726.66 34.9739ZM333.35 35.1677L339.88 41.7232H350.91L364.54 27.4248L364.56 27.449V27.4248L372.41 34.9496H726.7L729.52 32.1263L724.81 27.4248H734.21L729.52 32.1263L732.34 34.9496H802.09L806.09 38.9726L813.99 46.8852L819.25 41.6142L845.92 41.7353H850.2L861 30.9146H889.71L895.9 37.1065L959.285 37.0702L964.208 32.1384L971.586 39.5421L974.053 37.0702L1115.03 37.1065L1125.92 48L1146.44 27.4369L1154.17 35.1799H1157.45L1159.24 33.3865L1156.4 30.5389H1162.08L1159.25 33.3865L1161.01 35.1435L1218.99 35.1799V0H0V35.1799H333.31L333.35 35.1677ZM846 33.0109H847.48V34.4892H846V33.0109ZM846 35.9796H847.48V37.4579H846V35.9796ZM834.54 33.0109H836.01V37.4579H834.54V33.0109ZM828.87 35.9796H830.34V37.4579H828.87V35.9796ZM418.78 27.4369H423.22V31.8839H418.78V27.4369ZM403.99 27.4369H405.47V31.8839H403.99V27.4369ZM393.64 27.4369H395.11V31.8839H393.64V27.4369ZM391.4 27.4369H392.88V31.8839H391.4V27.4369Z" fill="#060606"/>
<path d="M1330.06 41.0281L1326.57 37.5262L1326.57 37.5281L1323.06 41.0281H1330.06Z" fill="#060606"/>
<path d="M1326.57 37.5264L1326.58 37.5385L1329.05 35.0666L1582.02 35.1029L1589.51 42.0771H1599.01L1613.44 27.4369L1621.16 35.1799H1624.44L1626.23 33.3866L1623.39 30.539H1629.07L1626.24 33.3866L1628 35.1436L1654.98 35.1799L1665 23.5432H1708V9.91821e-05H1219.01V9.5175L1218.89 30.9146V35.1029L1314.28 35.0666L1319.2 32.1385L1326.57 37.5283L1326.57 37.5264Z" fill="#060606"/>
<path d="M1920 11.0203H1708V6.48499e-05H1920V11.0203Z" fill="#060606"/>
<path d="M1712 23.5H1710V11.0202H1712V23.5Z" fill="#060606"/>
<path d="M1720 23.5H1718V11.0202H1720V23.5Z" fill="#060606"/>
<path d="M1729 23.5H1727V11.0202H1729V23.5Z" fill="#060606"/>
<path d="M1725 23.5H1722V11.0202H1725V23.5Z" fill="#060606"/>
<path d="M1715 23.5H1714V11.0202H1715V23.5Z" fill="#060606"/>
<path d="M1731 23.5H1730V11.0202H1731V23.5Z" fill="#060606"/>
<path d="M1738 23.5H1737V11.0202H1738V23.5Z" fill="#060606"/>
<path d="M1741 23.5H1740V11.0202H1741V23.5Z" fill="#060606"/>
</g>
<defs>
<clipPath id="clip0_153_73">
<rect width="1920" height="48" fill="white" transform="matrix(-1 0 0 -1 1920 48)"/>
</clipPath>
</defs>
</svg>
